<svg width="79" height="79" viewBox="0 0 79 79" fill="none" xmlns="http://www.w3.org/2000/svg">
<g clip-path="url(#clip0_31_297)" filter="url(#filter0_d_31_297)">
<path d="M63.0805 56.0926C59.6214 59.7834 55.3347 62.5994 50.5738 64.3085L50.3505 64.3783C45.7889 66.0365 40.5238 66.9969 35.0354 66.9969H34.7562H34.7702L34.2425 66.9996C29.3125 66.9996 24.5945 66.0868 20.2507 64.4229L20.5187 64.5123C16.4292 62.9818 12.6957 60.6315 9.54746 57.6057L9.55863 57.6141C6.5428 54.6691 4.16524 51.1351 2.57388 47.2319L2.5013 47.0281C0.83629 42.8781 -0.0120729 38.4457 0.00275453 33.9742L0.0055462 33.5499V33.5722L0.00275453 33.2568C0.00275453 28.55 1.01055 24.0778 2.82234 20.0438L2.74138 20.2476C4.50565 16.2507 7.03714 12.6389 10.1923 9.61694L10.2035 9.60577C13.3483 6.62356 17.0217 4.25388 21.0352 2.61823L21.2697 2.53448C25.192 0.932066 29.7452 0.00244141 34.5133 0.00244141H34.7869H34.773H34.8874C39.1308 0.00244141 43.2233 0.655692 47.0675 1.86727L46.7799 1.78911C50.5587 2.93049 54.0865 4.77871 57.1761 7.23565L57.1119 7.18819C60.0951 9.59168 62.5251 12.6101 64.2362 16.0378L64.306 16.1913C66.2025 20.1644 67.1259 24.5318 67 28.9325V28.899L67.0056 29.421C67.0086 32.5588 66.481 35.6745 65.445 38.6363L65.5036 38.4409C64.6218 40.9995 63.2539 43.3636 61.4753 45.4033L61.4948 45.3782C59.9404 47.1493 58.0215 48.5635 55.8696 49.5238L55.7663 49.5657C53.6453 50.4907 51.3551 50.9642 49.0412 50.9559H48.9909H48.9937C46.9015 51.0646 44.8347 50.457 43.134 49.2335L43.1619 49.253C42.4856 48.7625 41.9351 48.1186 41.5556 47.3742C41.1761 46.6298 40.9785 45.8061 40.9788 44.9706V44.9287V44.9315H40.5322C39.4372 46.5463 38.0329 47.9278 36.4005 48.9962L36.3447 49.0297C34.2878 50.3818 31.8618 51.0617 29.4018 50.9755H29.4213C27.6272 51.0821 25.8327 50.773 24.1777 50.0723C22.5226 49.3716 21.0517 48.2983 19.8794 46.9359L19.8655 46.922C17.5049 43.9163 16.3102 40.1586 16.5015 36.3416V36.3779C16.5043 33.6979 16.9677 31.1295 17.822 28.7426L17.7717 28.9018C18.5892 26.496 19.8295 24.2554 21.4344 22.2855L21.4037 22.3246C22.9361 20.4511 24.8182 18.8933 26.9451 17.7379L27.0428 17.6904C29.2861 16.4995 31.7953 15.8982 34.3347 15.9429H34.3235C36.3843 15.8727 38.4237 16.3804 40.2111 17.4085L40.1581 17.3806C41.5623 18.165 42.6427 19.3822 43.2373 20.8478L43.254 20.8953H43.3434L44.0748 17.2912H52.179L48.6057 34.3232C48.4856 35.1607 48.3209 36.0875 48.1115 37.1204C47.9189 37.9859 47.8045 38.9797 47.7961 40.0014V40.007L47.7933 40.1829C47.7933 41.0595 48.0166 41.8858 48.4075 42.6061L48.3935 42.5781C48.6483 42.9485 49.0008 43.2409 49.4118 43.4227C49.8229 43.6046 50.2764 43.6688 50.7218 43.6083H50.7106C51.9336 43.5684 53.1232 43.1996 54.1544 42.5409C55.1855 41.8821 56.0201 40.9576 56.5703 39.8646L56.5871 39.8256C58.2929 36.702 59.0944 33.1647 58.9013 29.6109L58.9041 29.6555L58.9069 29.2228C58.9069 25.9203 58.2341 22.7741 57.0198 19.9126L57.0784 20.0689C55.9399 17.3885 54.223 14.9929 52.0506 13.0535L52.0311 13.0367C49.8309 11.1328 47.2691 9.6924 44.4991 8.80177L44.3456 8.7599C41.2954 7.79623 38.1142 7.31123 34.9153 7.32219L34.5943 7.32498H34.611L34.2705 7.32219C30.7169 7.31792 27.1984 8.0241 23.9218 9.39919L24.0976 9.33219C21.0276 10.6087 18.255 12.5068 15.9543 14.9071L15.946 14.9155C13.709 17.2909 11.9516 20.0759 10.7702 23.1174L10.7116 23.2905C9.45273 26.6338 8.81415 30.1785 8.82721 33.7509C8.82721 37.5811 9.54467 41.2437 10.8568 44.6105L10.787 44.4067C12.0233 47.4783 13.8956 50.2535 16.281 52.55L16.2893 52.5584C18.6753 54.8157 21.4992 56.5592 24.5862 57.6811L24.7537 57.7341C27.8636 58.8675 31.4537 59.5236 35.1973 59.5236L35.5993 59.5208H35.5798C40.0018 59.6431 44.399 58.8198 48.4773 57.106L48.2707 57.1814C51.883 55.5802 55.1987 53.3801 58.0778 50.674L58.0611 50.6907L63.0805 56.0926ZM34.5915 23.3268H34.4854C33.0784 23.3268 31.7831 23.7986 30.7502 24.597L30.7641 24.5859C29.6525 25.4494 28.7171 26.5185 28.0088 27.7349L27.9808 27.7879C27.2188 29.0886 26.6428 30.4897 26.2695 31.9503L26.2444 32.0647C25.858 33.5311 25.6573 35.0401 25.647 36.5565V36.5677C25.6526 37.3856 25.7335 38.1813 25.8843 38.9518L25.8703 38.8708C26.0295 39.7251 26.3477 40.4844 26.7944 41.1516L26.7804 41.1293C27.2771 41.9136 27.977 42.5487 28.8057 42.9671C29.6345 43.3854 30.5612 43.5713 31.4872 43.505H31.4704L31.6882 43.5078C33.1132 43.5107 34.5058 43.0825 35.683 42.2794L35.6579 42.2962C36.7951 41.4986 37.7503 40.4691 38.4608 39.2756L38.4859 39.2309C39.1782 38.0724 39.731 36.7324 40.0688 35.3086L40.0883 35.2109C40.3842 34.0356 40.5657 32.6789 40.588 31.2831V31.2691C40.588 30.2641 40.4903 29.2814 40.3033 28.3323L40.32 28.4272C40.1535 27.5213 39.8223 26.6537 39.3429 25.8672L39.3625 25.9007C38.9052 25.151 38.2717 24.5243 37.5172 24.075L37.492 24.061C36.6643 23.5786 35.7227 23.3261 34.7646 23.3296L34.5803 23.3324H34.5887L34.5915 23.3268Z" fill="#D4F1F8"/>
</g>
<defs>
<filter id="filter0_d_31_297" x="0" y="0" width="78.6089" height="78.6089" filterUnits="userSpaceOnUse" color-interpolation-filters="sRGB">
<feFlood flood-opacity="0" result="BackgroundImageFix"/>
<feColorMatrix in="SourceAlpha" type="matrix" values="0 0 0 0 0 0 0 0 0 0 0 0 0 0 0 0 0 0 127 0" result="hardAlpha"/>
<feOffset dx="8.95545" dy="8.95545"/>
<feGaussianBlur stdDeviation="1.32673"/>
<feComposite in2="hardAlpha" operator="out"/>
<feColorMatrix type="matrix" values="0 0 0 0 0 0 0 0 0 0 0 0 0 0 0 0 0 0 0.25 0"/>
<feBlend mode="normal" in2="BackgroundImageFix" result="effect1_dropShadow_31_297"/>
<feBlend mode="normal" in="SourceGraphic" in2="effect1_dropShadow_31_297" result="shape"/>
</filter>
<clipPath id="clip0_31_297">
<rect width="67" height="67" fill="white"/>
</clipPath>
</defs>
</svg>
