<svg width="104" height="89" viewBox="0 0 104 89" fill="none" xmlns="http://www.w3.org/2000/svg">
<g clip-path="url(#clip0_5_31)" filter="url(#filter0_d_5_31)">
<g filter="url(#filter1_d_5_31)">
<path d="M36.6575 76.4445C40.0747 76.4445 42.845 74.038 42.845 71.0695C42.845 68.1009 40.0747 65.6945 36.6575 65.6945C33.2402 65.6945 30.47 68.1009 30.47 71.0695C30.47 74.038 33.2402 76.4445 36.6575 76.4445Z" fill="#DCB365"/>
<path d="M42.345 71.0695C42.345 73.6981 39.867 75.9445 36.6575 75.9445C33.4479 75.9445 30.97 73.6981 30.97 71.0695C30.97 68.4408 33.4479 66.1945 36.6575 66.1945C39.867 66.1945 42.345 68.4408 42.345 71.0695Z" stroke="black"/>
</g>
<g filter="url(#filter2_d_5_31)">
<path d="M74.25 76.4445C77.6673 76.4445 80.4375 74.038 80.4375 71.0695C80.4375 68.1009 77.6673 65.6945 74.25 65.6945C70.8327 65.6945 68.0625 68.1009 68.0625 71.0695C68.0625 74.038 70.8327 76.4445 74.25 76.4445Z" fill="#DCB365"/>
<path d="M79.9375 71.0695C79.9375 73.6981 77.4595 75.9445 74.25 75.9445C71.0405 75.9445 68.5625 73.6981 68.5625 71.0695C68.5625 68.4408 71.0405 66.1945 74.25 66.1945C77.4595 66.1945 79.9375 68.4408 79.9375 71.0695Z" stroke="black"/>
</g>
<g filter="url(#filter3_d_5_31)">
<path d="M90.97 12.8284C90.7141 12.5543 90.3915 12.3329 90.0254 12.1801C89.6593 12.0273 89.2587 11.9468 88.8525 11.9445H31.5975L33.385 16.7222H85.25L77.9075 45.3889H36.6575L24.09 10.8217C23.9541 10.4549 23.718 10.1221 23.402 9.85173C23.0859 9.58134 22.6993 9.38139 22.275 9.26891L11 6.25891C10.6533 6.16637 10.2891 6.13405 9.92799 6.1638C9.56692 6.19355 9.21614 6.28478 8.89566 6.4323C8.24842 6.73022 7.76394 7.23929 7.54878 7.84752C7.33362 8.45575 7.40542 9.11332 7.74838 9.67556C8.09133 10.2378 8.67736 10.6587 9.37753 10.8456L19.25 13.4734L31.8725 48.1122L27.3625 51.3134L27.005 51.6239C25.8895 52.7407 25.2571 54.1605 25.217 55.6387C25.1768 57.1169 25.7313 58.561 26.785 59.7222C27.5346 60.5141 28.487 61.1425 29.5662 61.5573C30.6454 61.9721 31.8214 62.1618 33 62.1111H78.8975C79.6269 62.1111 80.3263 61.8594 80.8421 61.4114C81.3578 60.9634 81.6475 60.3558 81.6475 59.7222C81.6475 59.0887 81.3578 58.481 80.8421 58.033C80.3263 57.585 79.6269 57.3334 78.8975 57.3334H32.56C32.2434 57.324 31.9348 57.2438 31.6642 57.1006C31.3937 56.9573 31.1702 56.7559 31.0153 56.5158C30.8605 56.2756 30.7796 56.0048 30.7804 55.7296C30.7813 55.4543 30.8638 55.1839 31.02 54.9445L37.6475 50.1667H80.1075C80.7432 50.1802 81.3647 50.0019 81.8661 49.6622C82.3675 49.3224 82.7178 48.8422 82.8575 48.3034L91.575 14.8589C91.6587 14.5028 91.6476 14.1347 91.5428 13.7829C91.438 13.431 91.2421 13.1045 90.97 12.8284Z" fill="#DCB365"/>
<path d="M90.6046 13.1696L90.6045 13.1697L90.6138 13.1792C90.8317 13.4005 90.9834 13.6565 91.0636 13.9256C91.1431 14.1925 91.1518 14.4699 91.0895 14.7392L82.3737 48.1772L82.3735 48.1779C82.2671 48.5883 81.9959 48.9702 81.5856 49.2482C81.1744 49.5268 80.6557 49.6782 80.1181 49.6668V49.6667H80.1075H37.6475H37.4861L37.3551 49.7611L30.7276 54.5389L30.6521 54.5933L30.6013 54.6712C30.3945 54.9882 30.2816 55.3524 30.2804 55.7281C30.2793 56.1038 30.39 56.4686 30.5951 56.7867C30.7997 57.104 31.0896 57.3621 31.4303 57.5425C31.7709 57.7228 32.1548 57.8216 32.5452 57.8331L32.5526 57.8334H32.56H78.8975C79.5152 57.8334 80.0959 58.0471 80.5142 58.4105C80.9302 58.7719 81.1475 59.2458 81.1475 59.7222C81.1475 60.1987 80.9302 60.6725 80.5142 61.034C80.0959 61.3974 79.5152 61.6111 78.8975 61.6111H33H32.9893L32.9786 61.6116C31.867 61.6594 30.7595 61.4803 29.7456 61.0906C28.7335 60.7016 27.8464 60.1149 27.1517 59.3823C26.1813 58.3109 25.6804 56.9916 25.7168 55.6523C25.7531 54.3163 26.3223 53.0206 27.3466 51.9895L27.6719 51.7069L32.1619 48.52L32.4729 48.2993L32.3423 47.9411L19.7198 13.3022L19.6306 13.0572L19.3786 12.9902L9.50648 10.3625C9.50641 10.3625 9.50634 10.3625 9.50627 10.3624C9.50623 10.3624 9.50618 10.3624 9.50614 10.3624C8.91677 10.205 8.44418 9.85611 8.17523 9.41519C7.90872 8.97827 7.85637 8.47729 8.02016 8.01427C8.18535 7.54729 8.56604 7.13445 9.10472 6.88649C9.37077 6.76403 9.66454 6.6872 9.96905 6.66211C10.2736 6.63702 10.5803 6.66438 10.8711 6.74199C10.8711 6.74199 10.8711 6.742 10.8711 6.742L22.1461 9.75199L22.1469 9.75222C22.5027 9.84654 22.8211 10.0128 23.0769 10.2317C23.3321 10.4499 23.5161 10.7127 23.6207 10.994C23.6208 10.9945 23.621 10.995 23.6212 10.9954L36.1876 45.5598L36.3073 45.8889H36.6575H77.9075H78.2956L78.3919 45.513L85.7344 16.8463L85.8942 16.2222H85.25H33.7318L32.3184 12.4445H88.851C89.1932 12.4466 89.5286 12.5146 89.8328 12.6415C90.1373 12.7686 90.3999 12.9504 90.6046 13.1696Z" stroke="black"/>
</g>
</g>
<defs>
<filter id="filter0_d_5_31" x="0" y="0" width="111" height="98" filterUnits="userSpaceOnUse" color-interpolation-filters="sRGB">
<feFlood flood-opacity="0" result="BackgroundImageFix"/>
<feColorMatrix in="SourceAlpha" type="matrix" values="0 0 0 0 0 0 0 0 0 0 0 0 0 0 0 0 0 0 127 0" result="hardAlpha"/>
<feOffset dx="8" dy="8"/>
<feGaussianBlur stdDeviation="2"/>
<feComposite in2="hardAlpha" operator="out"/>
<feColorMatrix type="matrix" values="0 0 0 0 0 0 0 0 0 0 0 0 0 0 0 0 0 0 0.25 0"/>
<feBlend mode="normal" in2="BackgroundImageFix" result="effect1_dropShadow_5_31"/>
<feBlend mode="normal" in="SourceGraphic" in2="effect1_dropShadow_5_31" result="shape"/>
</filter>
<filter id="filter1_d_5_31" x="30.47" y="65.6945" width="24.375" height="22.75" filterUnits="userSpaceOnUse" color-interpolation-filters="sRGB">
<feFlood flood-opacity="0" result="BackgroundImageFix"/>
<feColorMatrix in="SourceAlpha" type="matrix" values="0 0 0 0 0 0 0 0 0 0 0 0 0 0 0 0 0 0 127 0" result="hardAlpha"/>
<feOffset dx="8" dy="8"/>
<feGaussianBlur stdDeviation="2"/>
<feComposite in2="hardAlpha" operator="out"/>
<feColorMatrix type="matrix" values="0 0 0 0 0 0 0 0 0 0 0 0 0 0 0 0 0 0 0.25 0"/>
<feBlend mode="normal" in2="BackgroundImageFix" result="effect1_dropShadow_5_31"/>
<feBlend mode="normal" in="SourceGraphic" in2="effect1_dropShadow_5_31" result="shape"/>
</filter>
<filter id="filter2_d_5_31" x="68.0625" y="65.6945" width="24.375" height="22.75" filterUnits="userSpaceOnUse" color-interpolation-filters="sRGB">
<feFlood flood-opacity="0" result="BackgroundImageFix"/>
<feColorMatrix in="SourceAlpha" type="matrix" values="0 0 0 0 0 0 0 0 0 0 0 0 0 0 0 0 0 0 127 0" result="hardAlpha"/>
<feOffset dx="8" dy="8"/>
<feGaussianBlur stdDeviation="2"/>
<feComposite in2="hardAlpha" operator="out"/>
<feColorMatrix type="matrix" values="0 0 0 0 0 0 0 0 0 0 0 0 0 0 0 0 0 0 0.25 0"/>
<feBlend mode="normal" in2="BackgroundImageFix" result="effect1_dropShadow_5_31"/>
<feBlend mode="normal" in="SourceGraphic" in2="effect1_dropShadow_5_31" result="shape"/>
</filter>
<filter id="filter3_d_5_31" x="3.42694" y="6.15308" width="92.2036" height="67.9661" filterUnits="userSpaceOnUse" color-interpolation-filters="sRGB">
<feFlood flood-opacity="0" result="BackgroundImageFix"/>
<feColorMatrix in="SourceAlpha" type="matrix" values="0 0 0 0 0 0 0 0 0 0 0 0 0 0 0 0 0 0 127 0" result="hardAlpha"/>
<feOffset dy="8"/>
<feGaussianBlur stdDeviation="2"/>
<feComposite in2="hardAlpha" operator="out"/>
<feColorMatrix type="matrix" values="0 0 0 0 0 0 0 0 0 0 0 0 0 0 0 0 0 0 0.25 0"/>
<feBlend mode="normal" in2="BackgroundImageFix" result="effect1_dropShadow_5_31"/>
<feBlend mode="normal" in="SourceGraphic" in2="effect1_dropShadow_5_31" result="shape"/>
</filter>
<clipPath id="clip0_5_31">
<rect width="99" height="86" fill="white"/>
</clipPath>
</defs>
</svg>
