<svg width="99" height="97" viewBox="0 0 99 97" fill="none" xmlns="http://www.w3.org/2000/svg">
<g clip-path="url(#clip0_5_23)" filter="url(#filter0_d_5_23)">
<g filter="url(#filter1_d_5_23)">
<path d="M49.5 7.66669C26.7547 7.66669 8.25 24.863 8.25 46V61.8815C8.25 65.8069 11.9501 69 16.5 69H20.625C21.719 69 22.7682 68.5962 23.5418 67.8773C24.3154 67.1584 24.75 66.1833 24.75 65.1667V45.4519C24.75 44.4352 24.3154 43.4602 23.5418 42.7413C22.7682 42.0224 21.719 41.6185 20.625 41.6185H16.8795C19.173 26.7835 32.9093 15.3334 49.5 15.3334C66.0907 15.3334 79.827 26.7835 82.1205 41.6185H78.375C77.281 41.6185 76.2318 42.0224 75.4582 42.7413C74.6846 43.4602 74.25 44.4352 74.25 45.4519V69C74.25 73.2282 70.5499 76.6667 66 76.6667H57.75V72.8334H41.25V84.3334H66C75.0997 84.3334 82.5 77.4564 82.5 69C87.0499 69 90.75 65.8069 90.75 61.8815V46C90.75 24.863 72.2453 7.66669 49.5 7.66669Z" fill="#DCB365"/>
<path d="M16.3854 41.5421L16.2963 42.1185H16.8795H20.625C21.5978 42.1185 22.524 42.478 23.2014 43.1075C23.8777 43.736 24.25 44.5801 24.25 45.4519V65.1667C24.25 66.0384 23.8777 66.8826 23.2014 67.511C22.524 68.1406 21.5978 68.5 20.625 68.5H16.5C12.1545 68.5 8.75 65.464 8.75 61.8815V46C8.75 25.1731 26.9957 8.16669 49.5 8.16669C72.0043 8.16669 90.25 25.1731 90.25 46V61.8815C90.25 65.464 86.8455 68.5 82.5 68.5H82V69C82 77.1463 74.8588 83.8334 66 83.8334H41.75V73.3334H57.25V76.6667V77.1667H57.75H66C70.7909 77.1667 74.75 73.5382 74.75 69V45.4519C74.75 44.5801 75.1223 43.736 75.7985 43.1075C76.476 42.478 77.4022 42.1185 78.375 42.1185H82.1205H82.7037L82.6146 41.5421C80.2801 26.4416 66.3147 14.8334 49.5 14.8334C32.6853 14.8334 18.7199 26.4416 16.3854 41.5421Z" stroke="black"/>
</g>
</g>
<defs>
<filter id="filter0_d_5_23" x="-4" y="0" width="107" height="104" filterUnits="userSpaceOnUse" color-interpolation-filters="sRGB">
<feFlood flood-opacity="0" result="BackgroundImageFix"/>
<feColorMatrix in="SourceAlpha" type="matrix" values="0 0 0 0 0 0 0 0 0 0 0 0 0 0 0 0 0 0 127 0" result="hardAlpha"/>
<feOffset dy="8"/>
<feGaussianBlur stdDeviation="2"/>
<feComposite in2="hardAlpha" operator="out"/>
<feColorMatrix type="matrix" values="0 0 0 0 0 0 0 0 0 0 0 0 0 0 0 0 0 0 0.25 0"/>
<feBlend mode="normal" in2="BackgroundImageFix" result="effect1_dropShadow_5_23"/>
<feBlend mode="normal" in="SourceGraphic" in2="effect1_dropShadow_5_23" result="shape"/>
</filter>
<filter id="filter1_d_5_23" x="8.25" y="7.66669" width="94.5" height="88.6667" filterUnits="userSpaceOnUse" color-interpolation-filters="sRGB">
<feFlood flood-opacity="0" result="BackgroundImageFix"/>
<feColorMatrix in="SourceAlpha" type="matrix" values="0 0 0 0 0 0 0 0 0 0 0 0 0 0 0 0 0 0 127 0" result="hardAlpha"/>
<feOffset dx="8" dy="8"/>
<feGaussianBlur stdDeviation="2"/>
<feComposite in2="hardAlpha" operator="out"/>
<feColorMatrix type="matrix" values="0 0 0 0 0 0 0 0 0 0 0 0 0 0 0 0 0 0 0.25 0"/>
<feBlend mode="normal" in2="BackgroundImageFix" result="effect1_dropShadow_5_23"/>
<feBlend mode="normal" in="SourceGraphic" in2="effect1_dropShadow_5_23" result="shape"/>
</filter>
<clipPath id="clip0_5_23">
<rect width="99" height="92" fill="white"/>
</clipPath>
</defs>
</svg>
