<svg width="139" height="139" viewBox="0 0 139 139" fill="none" xmlns="http://www.w3.org/2000/svg">
<g filter="url(#filter0_d_31_303)">
<path d="M23.0068 0C10.262 0 0 10.262 0 23.0068V102.993C0 115.738 10.262 126 23.0068 126H66.3586V76.7418H53.3334V59.0073H66.3586V43.8559C66.3586 31.952 74.0546 21.0223 91.783 21.0223C98.9609 21.0223 104.269 21.7114 104.269 21.7114L103.851 38.2725C103.851 38.2725 98.438 38.2214 92.5311 38.2214C86.138 38.2214 85.1128 41.167 85.1128 46.0571V59.0074H104.359L103.521 76.7419H85.1128V126H102.993C115.738 126 126 115.738 126 102.993V23.0069C126 10.2622 115.738 0.000126 102.993 0.000126H23.0067L23.0068 0Z" fill="#D4F1F8"/>
</g>
<defs>
<filter id="filter0_d_31_303" x="0" y="0" width="138.894" height="138.895" filterUnits="userSpaceOnUse" color-interpolation-filters="sRGB">
<feFlood flood-opacity="0" result="BackgroundImageFix"/>
<feColorMatrix in="SourceAlpha" type="matrix" values="0 0 0 0 0 0 0 0 0 0 0 0 0 0 0 0 0 0 127 0" result="hardAlpha"/>
<feOffset dx="9.94737" dy="9.94737"/>
<feGaussianBlur stdDeviation="1.47368"/>
<feComposite in2="hardAlpha" operator="out"/>
<feColorMatrix type="matrix" values="0 0 0 0 0 0 0 0 0 0 0 0 0 0 0 0 0 0 0.25 0"/>
<feBlend mode="normal" in2="BackgroundImageFix" result="effect1_dropShadow_31_303"/>
<feBlend mode="normal" in="SourceGraphic" in2="effect1_dropShadow_31_303" result="shape"/>
</filter>
</defs>
</svg>
