<svg width="98" height="92" viewBox="0 0 98 92" fill="none" xmlns="http://www.w3.org/2000/svg">
<g filter="url(#filter0_d_6_42)">
<path d="M83.9193 16.3944C82.585 13.1862 80.661 10.279 78.255 7.83545C75.8473 5.38463 73.0084 3.437 69.8929 2.09847C66.6624 0.704978 63.1974 -0.00828799 59.6992 7.26568e-05C54.7915 7.26568e-05 50.0032 1.39556 45.8421 4.03147C44.8466 4.66202 43.9009 5.35459 43.0049 6.10919C42.109 5.35459 41.1633 4.66202 40.1678 4.03147C36.0067 1.39556 31.2184 7.26568e-05 26.3106 7.26568e-05C22.7767 7.26568e-05 19.3522 0.702983 16.1169 2.09847C12.9911 3.44226 10.1738 5.37527 7.75482 7.83545C5.34572 10.2762 3.42126 13.1841 2.09052 16.3944C0.706794 19.7332 0 23.2788 0 26.9277C0 30.3699 0.67693 33.9568 2.02083 37.6057C3.14573 40.6551 4.75841 43.8182 6.81907 47.0123C10.0843 52.0671 14.5739 57.3389 20.1486 62.6831C29.3867 71.5418 38.5352 77.6613 38.9234 77.9094L41.2827 79.4806C42.328 80.1731 43.6719 80.1731 44.7172 79.4806L47.0765 77.9094C47.4647 77.6509 56.6032 71.5418 65.8513 62.6831C71.426 57.3389 75.9156 52.0671 79.1808 47.0123C81.2415 43.8182 82.8641 40.6551 83.9791 37.6057C85.323 33.9568 85.9999 30.3699 85.9999 26.9277C86.0098 23.2788 85.303 19.7332 83.9193 16.3944Z" fill="#DCB365"/>
<path d="M77.8987 8.18625L77.8983 8.18586C75.5355 5.78074 72.7506 3.87041 69.6956 2.55786L69.6949 2.55758C66.5269 1.19106 63.1297 0.491875 59.7004 0.500071L59.6992 0.500074C54.8868 0.500073 50.1912 1.8683 46.1096 4.45385L45.8437 4.03399L46.1096 4.45386C45.1331 5.07241 44.2056 5.75165 43.327 6.49162L43.0049 6.7629L42.6828 6.49162C41.8043 5.75165 40.8768 5.07241 39.9002 4.45386L40.1655 4.03515L39.9002 4.45385C35.8186 1.8683 31.123 0.500073 26.3106 0.500073C22.8443 0.500073 19.4872 1.18927 16.3149 2.55758L16.3144 2.55782C13.249 3.87563 10.4856 5.77138 8.11134 8.18601L8.11068 8.18669C5.74752 10.5809 3.85879 13.4344 2.55242 16.5858L77.8987 8.18625ZM77.8987 8.18625C80.259 10.5833 82.1474 13.4363 83.4574 16.5858C84.8159 19.8638 85.5097 23.3438 85.4999 26.9264V26.9277C85.4999 30.3041 84.8359 33.8325 83.5099 37.4329L83.5095 37.434C82.4096 40.4422 80.8053 43.572 78.7608 46.741C75.5219 51.7552 71.0597 56.9974 65.5054 62.322C56.2883 71.1511 47.1776 77.2414 46.7994 77.4931L46.7993 77.4932L44.441 79.0638C43.5633 79.6453 42.4372 79.6454 41.5594 79.0641C41.5593 79.064 41.5591 79.0639 41.5589 79.0638L39.2006 77.4932L39.2006 77.4931L39.1927 77.488C38.8236 77.2522 29.703 71.1524 20.4947 62.3222L20.4946 62.3222M77.8987 8.18625L20.4946 62.3222M20.4946 62.3222C14.9402 56.9975 10.4781 51.7552 7.23906 46.741C5.1952 43.5729 3.60032 40.4427 2.49002 37.4329C1.16398 33.8325 0.5 30.3041 0.5 26.9277C0.5 23.3443 1.19392 19.8638 2.55241 16.5859L20.4946 62.3222Z" stroke="black"/>
</g>
<defs>
<filter id="filter0_d_6_42" x="0" y="0" width="98" height="92" filterUnits="userSpaceOnUse" color-interpolation-filters="sRGB">
<feFlood flood-opacity="0" result="BackgroundImageFix"/>
<feColorMatrix in="SourceAlpha" type="matrix" values="0 0 0 0 0 0 0 0 0 0 0 0 0 0 0 0 0 0 127 0" result="hardAlpha"/>
<feOffset dx="8" dy="8"/>
<feGaussianBlur stdDeviation="2"/>
<feComposite in2="hardAlpha" operator="out"/>
<feColorMatrix type="matrix" values="0 0 0 0 0 0 0 0 0 0 0 0 0 0 0 0 0 0 0.25 0"/>
<feBlend mode="normal" in2="BackgroundImageFix" result="effect1_dropShadow_6_42"/>
<feBlend mode="normal" in="SourceGraphic" in2="effect1_dropShadow_6_42" result="shape"/>
</filter>
</defs>
</svg>
