<svg width="113" height="102" viewBox="0 0 113 102" fill="none" xmlns="http://www.w3.org/2000/svg">
<g clip-path="url(#clip0_5_16)">
<g filter="url(#filter0_d_5_16)">
<path d="M56.5 89.75C80.1295 89.75 99.375 72.4477 99.375 51C99.375 29.5523 80.1295 12.25 56.5 12.25C32.8705 12.25 13.625 29.5523 13.625 51C13.625 72.4477 32.8705 89.75 56.5 89.75ZM103.083 51C103.083 74.1497 82.2774 93 56.5 93C30.7226 93 9.91667 74.1497 9.91667 51C9.91667 27.8503 30.7226 9 56.5 9C82.2774 9 103.083 27.8503 103.083 51Z" fill="#DCB365" stroke="black"/>
<path d="M30.0777 78.4733L30.0775 78.4731C29.221 77.7566 28.75 76.7474 28.75 75.7159V75.7138C28.75 73.8126 30.334 72.1393 32.5372 71.9188C50.6632 70.1077 62.4132 70.2705 80.5079 71.9594C81.3264 72.037 82.0972 72.3278 82.7272 72.7907C83.3567 73.2533 83.8159 73.8657 84.0573 74.5483C84.2983 75.2301 84.314 75.9586 84.1029 76.6476C83.8918 77.337 83.4606 77.9639 82.8531 78.4475C72.1811 86.8441 63.8925 90.9021 55.8648 90.8758C47.8418 90.8496 39.9519 86.7429 30.0777 78.4733Z" fill="#DCB365" stroke="black"/>
<path d="M30.1042 75.7175C30.1003 75.0414 30.3731 74.3969 30.855 73.9054C31.3359 73.415 31.9914 73.1099 32.6918 73.0363L32.6944 73.036L32.6944 73.036C50.707 71.2368 62.3526 71.3947 80.3589 73.0761L80.8124 73.1184V73.1561C81.1813 73.2486 81.5292 73.4096 81.8332 73.6327C82.2595 73.9456 82.5834 74.3692 82.757 74.8568C82.9309 75.3452 82.944 75.8705 82.7942 76.3663C82.6446 76.8614 82.3413 77.2987 81.9298 77.6293L81.9257 77.6325C71.2872 86.0005 63.3388 89.774 55.8698 89.75C48.4219 89.7261 40.8725 85.9176 31.0365 77.6824L31.035 77.6811C30.4563 77.1925 30.1047 76.4804 30.1042 75.7175ZM30.1042 75.7175C30.1042 75.717 30.1042 75.7164 30.1042 75.7159H30.6042L30.1042 75.7191C30.1042 75.7186 30.1042 75.718 30.1042 75.7175ZM31.3575 77.299C41.1697 85.5143 48.6041 89.2266 55.8714 89.25C63.1646 89.2734 70.9993 85.5908 81.6166 77.2395C81.9539 76.9685 82.1967 76.6149 82.3156 76.2217C82.4344 75.8285 82.4241 75.4125 82.286 75.0245C82.1478 74.6364 81.8877 74.2929 81.5374 74.0358C81.187 73.7787 80.7615 73.6189 80.3124 73.576L31.3575 77.299ZM28.0608 71.7689C29.1064 70.7111 30.5427 70.0181 32.1138 69.823L32.2783 69.8065C50.595 67.9763 62.5169 68.1413 80.7528 69.8451C82.0277 69.9652 83.2313 70.4179 84.217 71.1423C85.2023 71.8664 85.9248 72.8284 86.3047 73.9057L86.7763 73.7394L86.3047 73.9057C86.6844 74.9822 86.7079 76.1334 86.373 77.2211C86.0379 78.3092 85.3563 79.2934 84.4029 80.0492C73.654 88.5068 64.7985 93.0313 55.8591 93L55.8589 93C46.8984 92.9709 38.4395 88.3729 28.4796 80.0313C27.8169 79.474 27.292 78.8023 26.9348 78.06C26.5776 77.3179 26.3948 76.5195 26.3958 75.7144L26.3958 75.7127C26.3927 74.2674 26.98 72.8624 28.0608 71.7689ZM55.8573 93.5C46.7161 93.4703 38.1422 88.7761 28.1582 80.4143L55.8573 93.5Z" fill="#DCB365" stroke="black"/>
<path d="M74.8333 42.5C74.8333 46.8586 72.9156 51.0504 69.4822 54.1497C66.047 57.2504 61.3779 59 56.5 59C51.6221 59 46.953 57.2504 43.5179 54.1497C40.0844 51.0504 38.1667 46.8586 38.1667 42.5C38.1667 38.1414 40.0844 33.9496 43.5179 30.8503C46.953 27.7496 51.6221 26 56.5 26C61.3779 26 66.047 27.7496 69.4822 30.8503C72.9156 33.9496 74.8333 38.1414 74.8333 42.5Z" fill="#DCB365" stroke="black"/>
<path d="M56.5 55.75C60.3632 55.75 64.0772 54.3652 66.8229 51.8868C69.5703 49.4068 71.125 46.0316 71.125 42.5C71.125 38.9684 69.5703 35.5932 66.8229 33.1132C64.0772 30.6348 60.3632 29.25 56.5 29.25C52.6368 29.25 48.9228 30.6348 46.1771 33.1132C43.4297 35.5932 41.875 38.9684 41.875 42.5C41.875 46.0316 43.4297 49.4068 46.1771 51.8868C48.9228 54.3652 52.6368 55.75 56.5 55.75ZM69.4822 54.1497C66.047 57.2504 61.3779 59 56.5 59C51.6221 59 46.953 57.2504 43.5179 54.1497C40.0844 51.0504 38.1667 46.8586 38.1667 42.5C38.1667 38.1414 40.0844 33.9496 43.5179 30.8503C46.953 27.7496 51.6221 26 56.5 26C61.3779 26 66.047 27.7496 69.4822 30.8503C72.9156 33.9496 74.8333 38.1414 74.8333 42.5C74.8333 46.8586 72.9156 51.0504 69.4822 54.1497Z" fill="#DCB365" stroke="black"/>
</g>
</g>
<defs>
<filter id="filter0_d_5_16" x="9.41667" y="8.5" width="106.167" height="97.0002" filterUnits="userSpaceOnUse" color-interpolation-filters="sRGB">
<feFlood flood-opacity="0" result="BackgroundImageFix"/>
<feColorMatrix in="SourceAlpha" type="matrix" values="0 0 0 0 0 0 0 0 0 0 0 0 0 0 0 0 0 0 127 0" result="hardAlpha"/>
<feOffset dx="8" dy="8"/>
<feGaussianBlur stdDeviation="2"/>
<feComposite in2="hardAlpha" operator="out"/>
<feColorMatrix type="matrix" values="0 0 0 0 0 0 0 0 0 0 0 0 0 0 0 0 0 0 0.25 0"/>
<feBlend mode="normal" in2="BackgroundImageFix" result="effect1_dropShadow_5_16"/>
<feBlend mode="normal" in="SourceGraphic" in2="effect1_dropShadow_5_16" result="shape"/>
</filter>
<clipPath id="clip0_5_16">
<rect width="113" height="102" fill="white"/>
</clipPath>
</defs>
</svg>
