<svg width="78" height="52" viewBox="0 0 78 52" fill="none" xmlns="http://www.w3.org/2000/svg">
<g filter="url(#filter0_i_109_5)">
<path d="M23.7755 35.5628L3.2105 7.38822L44.391 7.42517L23.7755 35.5628Z" fill="#00223A"/>
</g>
<g filter="url(#filter1_i_109_5)">
<path d="M52.7739 13.0689L74.6204 41.6142H30.9275L52.7739 13.0689Z" fill="#00223A"/>
</g>
<g filter="url(#filter2_d_109_5)">
<path d="M25.8831 18.9043C25.8325 18.7166 25.758 18.5512 25.6596 18.4081C25.5613 18.2621 25.4406 18.1384 25.2975 18.0371C25.1545 17.9357 24.9906 17.8598 24.8058 17.8091C24.621 17.7554 24.4183 17.7286 24.1978 17.7286C23.7538 17.7286 23.3693 17.8359 23.0445 18.0505C22.7226 18.2651 22.4738 18.578 22.2979 18.9893C22.1221 19.3975 22.0342 19.8938 22.0342 20.4779C22.0342 21.065 22.1191 21.5657 22.289 21.9799C22.4589 22.3942 22.7047 22.7101 23.0266 22.9276C23.3484 23.1452 23.7389 23.254 24.1978 23.254C24.6031 23.254 24.9458 23.1884 25.226 23.0573C25.5091 22.9231 25.7237 22.7339 25.8697 22.4895C26.0157 22.2451 26.0888 21.9576 26.0888 21.6268L26.5 21.6759H24.2738V20.0621H28.2211V21.2736C28.2211 22.0932 28.0468 22.795 27.6981 23.3791C27.3524 23.9632 26.8755 24.4118 26.2676 24.7247C25.6626 25.0376 24.9667 25.1941 24.1799 25.1941C23.3067 25.1941 22.5393 25.0048 21.8777 24.6263C21.2161 24.2479 20.7005 23.7084 20.331 23.0081C19.9614 22.3048 19.7767 21.4703 19.7767 20.5047C19.7767 19.7537 19.8884 19.0876 20.1119 18.5065C20.3354 17.9223 20.6469 17.4276 21.0462 17.0223C21.4486 16.617 21.9135 16.31 22.441 16.1014C22.9715 15.8928 23.5422 15.7885 24.1531 15.7885C24.6836 15.7885 25.1768 15.8645 25.6328 16.0165C26.0917 16.1685 26.4971 16.3831 26.8487 16.6602C27.2034 16.9374 27.491 17.2667 27.7115 17.6482C27.932 18.0296 28.0691 18.4483 28.1228 18.9043H25.8831ZM50.6756 40.0689H48.2974L51.3864 30.9137H54.3323L57.4213 40.0689H55.0431L52.8929 33.2204H52.8214L50.6756 40.0689ZM50.3582 36.4658H55.3292V38.1467H50.3582V36.4658Z" fill="#DCB365"/>
<path d="M32.2067 25.0689H31.2401L34.0357 17.4553H34.9874L37.783 25.0689H36.8165L34.5413 18.6598H34.4818L32.2067 25.0689ZM32.5636 22.0949H36.4596V22.9127H32.5636V22.0949ZM38.9689 17.4553H40.0693L42.6568 23.7752H42.746L45.3334 17.4553H46.4338V25.0689H45.5713V19.2844H45.497L43.1177 25.0689H42.285L39.9058 19.2844H39.8314V25.0689H38.9689V17.4553ZM48.2823 25.0689V17.4553H52.8772V18.2732H49.2043V20.8458H52.6393V21.6636H49.2043V24.251H52.9367V25.0689H48.2823ZM20.1041 32.4553H21.2045L23.7919 38.7752H23.8811L26.4685 32.4553H27.5689V40.0689H26.7064V34.2844H26.6321L24.2528 40.0689H23.4201L21.0409 34.2844H20.9665V40.0689H20.1041V32.4553ZM29.7297 40.0689H28.7632L31.5588 32.4553H32.5105L35.3061 40.0689H34.3395L32.0644 33.6598H32.0049L29.7297 40.0689ZM30.0866 37.0949H33.9826V37.9127H30.0866V37.0949ZM42.5293 32.4553V40.0689H41.6371L37.4883 34.0911H37.4139V40.0689H36.492V32.4553H37.3842L41.5479 38.4481H41.6222V32.4553H42.5293ZM45.2961 32.4553V40.0689H44.3741V32.4553H45.2961Z" fill="#AEDDFF"/>
<path d="M25.8831 18.9043L25.7882 18.9299L25.8078 19.0027H25.8831V18.9043ZM25.6596 18.4081L25.578 18.4631L25.5786 18.4638L25.6596 18.4081ZM24.8058 17.8091L24.7784 17.9035L24.7798 17.9039L24.8058 17.8091ZM23.0445 18.0505L22.9903 17.9684L22.9899 17.9687L23.0445 18.0505ZM22.2979 18.9893L22.3882 19.0282L22.3884 19.0279L22.2979 18.9893ZM22.289 21.9799L22.38 21.9426L22.289 21.9799ZM23.0266 22.9276L23.0817 22.8461L23.0266 22.9276ZM25.226 23.0573L25.2677 23.1463L25.2681 23.1461L25.226 23.0573ZM25.8697 22.4895L25.7853 22.4391L25.8697 22.4895ZM26.0888 21.6268L26.1004 21.5291L25.9904 21.5159V21.6268H26.0888ZM26.5 21.6759V21.7743L26.5117 21.5783L26.5 21.6759ZM24.2738 21.6759H24.1755V21.7743H24.2738V21.6759ZM24.2738 20.0621V19.9638H24.1755V20.0621H24.2738ZM28.2211 20.0621H28.3195V19.9638H28.2211V20.0621ZM27.6981 23.3791L27.6136 23.3287L27.6134 23.329L27.6981 23.3791ZM26.2676 24.7247L26.2226 24.6372L26.2224 24.6373L26.2676 24.7247ZM21.8777 24.6263L21.9265 24.541L21.8777 24.6263ZM20.331 23.0081L20.2439 23.0538L20.244 23.054L20.331 23.0081ZM20.1119 18.5065L20.2037 18.5418L20.2038 18.5416L20.1119 18.5065ZM21.0462 17.0223L20.9764 16.953L20.9762 16.9533L21.0462 17.0223ZM22.441 16.1014L22.405 16.0099L22.4048 16.01L22.441 16.1014ZM25.6328 16.0165L25.6017 16.1098L25.6019 16.1098L25.6328 16.0165ZM26.8487 16.6602L26.7878 16.7375L26.7882 16.7377L26.8487 16.6602ZM27.7115 17.6482L27.6264 17.6974L27.7115 17.6482ZM28.1228 18.9043V19.0027H28.2334L28.2204 18.8928L28.1228 18.9043ZM25.9781 18.8787C25.9249 18.6815 25.846 18.5057 25.7407 18.3524L25.5786 18.4638C25.6699 18.5967 25.7401 18.7517 25.7882 18.9299L25.9781 18.8787ZM25.7412 18.3532C25.6362 18.1973 25.5072 18.0651 25.3544 17.9568L25.2407 18.1173C25.374 18.2118 25.4863 18.3268 25.578 18.463L25.7412 18.3532ZM25.3544 17.9568C25.2011 17.8483 25.0266 17.7677 24.8318 17.7142L24.7798 17.9039C24.9545 17.9518 25.1078 18.0232 25.2407 18.1173L25.3544 17.9568ZM24.8332 17.7146C24.6383 17.6581 24.4263 17.6303 24.1978 17.6303V17.827C24.4104 17.827 24.6037 17.8528 24.7784 17.9035L24.8332 17.7146ZM24.1978 17.6303C23.7373 17.6303 23.3334 17.7418 22.9903 17.9684L23.0987 18.1325C23.4053 17.93 23.7702 17.827 24.1978 17.827V17.6303ZM22.9899 17.9687C22.6498 18.1954 22.3896 18.5246 22.2075 18.9506L22.3884 19.0279C22.5579 18.6314 22.7954 18.3347 23.099 18.1323L22.9899 17.9687ZM22.2076 18.9504C22.0251 19.3741 21.9358 19.8844 21.9358 20.4779H22.1325C22.1325 19.9031 22.2191 19.421 22.3882 19.0282L22.2076 18.9504ZM21.9358 20.4779C21.9358 21.074 22.022 21.5881 22.198 22.0172L22.38 21.9426C22.2162 21.5432 22.1325 21.056 22.1325 20.4779H21.9358ZM22.198 22.0172C22.3741 22.4466 22.6312 22.7791 22.9715 23.0091L23.0817 22.8461C22.7782 22.641 22.5436 22.3417 22.38 21.9426L22.198 22.0172ZM22.9715 23.0091C23.3124 23.2395 23.7229 23.3523 24.1978 23.3523V23.1556C23.7549 23.1556 23.3845 23.0508 23.0817 22.8461L22.9715 23.0091ZM24.1978 23.3523C24.6132 23.3523 24.9711 23.2852 25.2677 23.1463L25.1843 22.9682C24.9206 23.0916 24.593 23.1556 24.1978 23.1556V23.3523ZM25.2681 23.1461C25.567 23.0046 25.7971 22.8027 25.9541 22.54L25.7853 22.4391C25.6503 22.6651 25.4512 22.8417 25.1839 22.9684L25.2681 23.1461ZM25.9541 22.54C26.1107 22.278 26.1871 21.9724 26.1871 21.6268H25.9904C25.9904 21.9427 25.9208 22.2123 25.7853 22.4391L25.9541 22.54ZM26.0771 21.7244L26.4884 21.7736L26.5117 21.5783L26.1004 21.5291L26.0771 21.7244ZM26.5 21.5776H24.2738V21.7743H26.5V21.5776ZM24.3722 21.6759V20.0621H24.1755V21.6759H24.3722ZM24.2738 20.1605H28.2211V19.9638H24.2738V20.1605ZM28.1228 20.0621V21.2736H28.3195V20.0621H28.1228ZM28.1228 21.2736C28.1228 22.0791 27.9515 22.7627 27.6136 23.3287L27.7825 23.4295C28.142 22.8273 28.3195 22.1073 28.3195 21.2736H28.1228ZM27.6134 23.329C27.2772 23.8971 26.8142 24.3327 26.2226 24.6372L26.3126 24.8121C26.9369 24.4908 27.4275 24.0294 27.7827 23.4292L27.6134 23.329ZM26.2224 24.6373C25.6334 24.942 24.9534 25.0957 24.1799 25.0957V25.2924C24.98 25.2924 25.6918 25.1332 26.3128 24.812L26.2224 24.6373ZM24.1799 25.0957C23.3213 25.0957 22.5712 24.9098 21.9265 24.541L21.8289 24.7117C22.5074 25.0999 23.2921 25.2924 24.1799 25.2924V25.0957ZM21.9265 24.541C21.2818 24.1721 20.7791 23.6467 20.418 22.9622L20.244 23.054C20.6219 23.7702 21.1504 24.3236 21.8289 24.7117L21.9265 24.541ZM20.418 22.9623C20.0573 22.2758 19.875 21.4577 19.875 20.5047H19.6783C19.6783 21.4828 19.8655 22.3337 20.2439 23.0538L20.418 22.9623ZM19.875 20.5047C19.875 19.7633 19.9853 19.1096 20.2037 18.5418L20.0201 18.4712C19.7915 19.0656 19.6783 19.744 19.6783 20.5047H19.875ZM20.2038 18.5416C20.4229 17.9689 20.7274 17.4861 21.1163 17.0913L20.9762 16.9533C20.5664 17.3692 20.248 17.8758 20.0201 18.4713L20.2038 18.5416ZM21.116 17.0916C21.5089 16.6958 21.9623 16.3965 22.4771 16.1929L22.4048 16.01C21.8646 16.2236 21.3883 16.5382 20.9764 16.953L21.116 17.0916ZM22.477 16.1929C22.9952 15.9892 23.5536 15.8868 24.1531 15.8868V15.6902C23.5307 15.6902 22.9477 15.7965 22.405 16.0099L22.477 16.1929ZM24.1531 15.8868C24.6741 15.8868 25.1567 15.9615 25.6017 16.1098L25.6639 15.9232C25.1969 15.7675 24.6931 15.6902 24.1531 15.6902V15.8868ZM25.6019 16.1098C26.0508 16.2585 26.4458 16.4679 26.7878 16.7375L26.9096 16.583C26.5483 16.2982 26.1326 16.0784 25.6637 15.9231L25.6019 16.1098ZM26.7882 16.7377C27.1331 17.0073 27.4123 17.3271 27.6264 17.6974L27.7966 17.5989C27.5697 17.2063 27.2736 16.8675 26.9093 16.5827L26.7882 16.7377ZM27.6264 17.6974C27.8399 18.0668 27.9729 18.4726 28.0251 18.9158L28.2204 18.8928C28.1653 18.4241 28.0242 17.9925 27.7966 17.5989L27.6264 17.6974ZM28.1228 18.806H25.8831V19.0027H28.1228V18.806ZM32.2067 25.0689V25.1673H32.2761L32.2994 25.1018L32.2067 25.0689ZM31.2401 25.0689L31.1478 25.035L31.0993 25.1673H31.2401V25.0689ZM34.0357 17.4553V17.357H33.9671L33.9434 17.4215L34.0357 17.4553ZM34.9874 17.4553L35.0798 17.4215L35.0561 17.357H34.9874V17.4553ZM37.783 25.0689V25.1673H37.9239L37.8754 25.035L37.783 25.0689ZM36.8165 25.0689L36.7238 25.1018L36.747 25.1673H36.8165V25.0689ZM34.5413 18.6598L34.634 18.6269L34.6108 18.5615H34.5413V18.6598ZM34.4818 18.6598V18.5615H34.4124L34.3892 18.6269L34.4818 18.6598ZM32.5636 22.0949V21.9965H32.4652V22.0949H32.5636ZM36.4596 22.0949H36.5579V21.9965H36.4596V22.0949ZM36.4596 22.9127V23.0111H36.5579V22.9127H36.4596ZM32.5636 22.9127H32.4652V23.0111H32.5636V22.9127ZM32.2067 24.9706H31.2401V25.1673H32.2067V24.9706ZM31.3325 25.1028L34.1281 17.4892L33.9434 17.4215L31.1478 25.035L31.3325 25.1028ZM34.0357 17.5537H34.9874V17.357H34.0357V17.5537ZM34.8951 17.4892L37.6907 25.1028L37.8754 25.035L35.0798 17.4215L34.8951 17.4892ZM37.783 24.9706H36.8165V25.1673H37.783V24.9706ZM36.9091 25.036L34.634 18.6269L34.4486 18.6927L36.7238 25.1018L36.9091 25.036ZM34.5413 18.5615H34.4818V18.7582H34.5413V18.5615ZM34.3892 18.6269L32.114 25.036L32.2994 25.1018L34.5745 18.6927L34.3892 18.6269ZM32.5636 22.1932H36.4596V21.9965H32.5636V22.1932ZM36.3612 22.0949V22.9127H36.5579V22.0949H36.3612ZM36.4596 22.8144H32.5636V23.0111H36.4596V22.8144ZM32.6619 22.9127V22.0949H32.4652V22.9127H32.6619ZM38.9689 17.4553V17.357H38.8706V17.4553H38.9689ZM40.0693 17.4553L40.1603 17.4181L40.1353 17.357H40.0693V17.4553ZM42.6568 23.7752L42.5657 23.8125L42.5907 23.8735H42.6568V23.7752ZM42.746 23.7752V23.8735H42.812L42.837 23.8125L42.746 23.7752ZM45.3334 17.4553V17.357H45.2674L45.2424 17.4181L45.3334 17.4553ZM46.4338 17.4553H46.5321V17.357H46.4338V17.4553ZM46.4338 25.0689V25.1673H46.5321V25.0689H46.4338ZM45.5713 25.0689H45.473V25.1673H45.5713V25.0689ZM45.5713 19.2844H45.6697V19.186H45.5713V19.2844ZM45.497 19.2844V19.186H45.4311L45.406 19.247L45.497 19.2844ZM43.1177 25.0689V25.1673H43.1836L43.2087 25.1063L43.1177 25.0689ZM42.285 25.0689L42.194 25.1063L42.2191 25.1673H42.285V25.0689ZM39.9058 19.2844L39.9967 19.247L39.9717 19.186H39.9058V19.2844ZM39.8314 19.2844V19.186H39.7331V19.2844H39.8314ZM39.8314 25.0689V25.1673H39.9298V25.0689H39.8314ZM38.9689 25.0689H38.8706V25.1673H38.9689V25.0689ZM38.9689 17.5537H40.0693V17.357H38.9689V17.5537ZM39.9783 17.4926L42.5657 23.8125L42.7478 23.7379L40.1603 17.4181L39.9783 17.4926ZM42.6568 23.8735H42.746V23.6769H42.6568V23.8735ZM42.837 23.8125L45.4244 17.4926L45.2424 17.4181L42.655 23.7379L42.837 23.8125ZM45.3334 17.5537H46.4338V17.357H45.3334V17.5537ZM46.3354 17.4553V25.0689H46.5321V17.4553H46.3354ZM46.4338 24.9706H45.5713V25.1673H46.4338V24.9706ZM45.6697 25.0689V19.2844H45.473V25.0689H45.6697ZM45.5713 19.186H45.497V19.3827H45.5713V19.186ZM45.406 19.247L43.0268 25.0315L43.2087 25.1063L45.5879 19.3218L45.406 19.247ZM43.1177 24.9706H42.285V25.1673H43.1177V24.9706ZM42.376 25.0315L39.9967 19.247L39.8148 19.3218L42.194 25.1063L42.376 25.0315ZM39.9058 19.186H39.8314V19.3827H39.9058V19.186ZM39.7331 19.2844V25.0689H39.9298V19.2844H39.7331ZM39.8314 24.9706H38.9689V25.1673H39.8314V24.9706ZM39.0673 25.0689V17.4553H38.8706V25.0689H39.0673ZM48.2823 25.0689H48.184V25.1673H48.2823V25.0689ZM48.2823 17.4553V17.357H48.184V17.4553H48.2823ZM52.8773 17.4553H52.9756V17.357H52.8773V17.4553ZM52.8773 18.2732V18.3716H52.9756V18.2732H52.8773ZM49.2043 18.2732V18.1749H49.106V18.2732H49.2043ZM49.2043 20.8458H49.106V20.9441H49.2043V20.8458ZM52.6393 20.8458H52.7377V20.7474H52.6393V20.8458ZM52.6393 21.6636V21.762H52.7377V21.6636H52.6393ZM49.2043 21.6636V21.5653H49.106V21.6636H49.2043ZM49.2043 24.251H49.106V24.3494H49.2043V24.251ZM52.9367 24.251H53.0351V24.1527H52.9367V24.251ZM52.9367 25.0689V25.1673H53.0351V25.0689H52.9367ZM48.3807 25.0689V17.4553H48.184V25.0689H48.3807ZM48.2823 17.5537H52.8773V17.357H48.2823V17.5537ZM52.7789 17.4553V18.2732H52.9756V17.4553H52.7789ZM52.8773 18.1749H49.2043V18.3716H52.8773V18.1749ZM49.106 18.2732V20.8458H49.3027V18.2732H49.106ZM49.2043 20.9441H52.6393V20.7474H49.2043V20.9441ZM52.541 20.8458V21.6636H52.7377V20.8458H52.541ZM52.6393 21.5653H49.2043V21.762H52.6393V21.5653ZM49.106 21.6636V24.251H49.3027V21.6636H49.106ZM49.2043 24.3494H52.9367V24.1527H49.2043V24.3494ZM52.8384 24.251V25.0689H53.0351V24.251H52.8384ZM52.9367 24.9706H48.2823V25.1673H52.9367V24.9706ZM20.1041 32.4553V32.357H20.0057V32.4553H20.1041ZM21.2045 32.4553L21.2955 32.4181L21.2705 32.357H21.2045V32.4553ZM23.7919 38.7752L23.7009 38.8125L23.7259 38.8735H23.7919V38.7752ZM23.8811 38.7752V38.8735H23.9471L23.9721 38.8125L23.8811 38.7752ZM26.4685 32.4553V32.357H26.4025L26.3775 32.4181L26.4685 32.4553ZM27.5689 32.4553H27.6673V32.357H27.5689V32.4553ZM27.5689 40.0689V40.1673H27.6673V40.0689H27.5689ZM26.7064 40.0689H26.6081V40.1673H26.7064V40.0689ZM26.7064 34.2844H26.8048V34.186H26.7064V34.2844ZM26.6321 34.2844V34.186H26.5662L26.5411 34.247L26.6321 34.2844ZM24.2528 40.0689V40.1673H24.3187L24.3438 40.1063L24.2528 40.0689ZM23.4201 40.0689L23.3292 40.1063L23.3542 40.1673H23.4201V40.0689ZM21.0409 34.2844L21.1318 34.247L21.1068 34.186H21.0409V34.2844ZM20.9665 34.2844V34.186H20.8682V34.2844H20.9665ZM20.9665 40.0689V40.1673H21.0649V40.0689H20.9665ZM20.1041 40.0689H20.0057V40.1673H20.1041V40.0689ZM20.1041 32.5537H21.2045V32.357H20.1041V32.5537ZM21.1134 32.4926L23.7009 38.8125L23.8829 38.7379L21.2955 32.4181L21.1134 32.4926ZM23.7919 38.8735H23.8811V38.6769H23.7919V38.8735ZM23.9721 38.8125L26.5595 32.4926L26.3775 32.4181L23.7901 38.7379L23.9721 38.8125ZM26.4685 32.5537H27.5689V32.357H26.4685V32.5537ZM27.4706 32.4553V40.0689H27.6673V32.4553H27.4706ZM27.5689 39.9706H26.7064V40.1673H27.5689V39.9706ZM26.8048 40.0689V34.2844H26.6081V40.0689H26.8048ZM26.7064 34.186H26.6321V34.3827H26.7064V34.186ZM26.5411 34.247L24.1619 40.0315L24.3438 40.1063L26.723 34.3218L26.5411 34.247ZM24.2528 39.9706H23.4201V40.1673H24.2528V39.9706ZM23.5111 40.0315L21.1318 34.247L20.9499 34.3218L23.3292 40.1063L23.5111 40.0315ZM21.0409 34.186H20.9665V34.3827H21.0409V34.186ZM20.8682 34.2844V40.0689H21.0649V34.2844H20.8682ZM20.9665 39.9706H20.1041V40.1673H20.9665V39.9706ZM20.2024 40.0689V32.4553H20.0057V40.0689H20.2024ZM29.7297 40.0689V40.1673H29.7992L29.8224 40.1018L29.7297 40.0689ZM28.7632 40.0689L28.6709 40.035L28.6223 40.1673H28.7632V40.0689ZM31.5588 32.4553V32.357H31.4901L31.4665 32.4214L31.5588 32.4553ZM32.5105 32.4553L32.6028 32.4214L32.5791 32.357H32.5105V32.4553ZM35.3061 40.0689V40.1673H35.447L35.3984 40.035L35.3061 40.0689ZM34.3395 40.0689L34.2468 40.1018L34.2701 40.1673H34.3395V40.0689ZM32.0644 33.6598L32.157 33.6269L32.1338 33.5615H32.0644V33.6598ZM32.0049 33.6598V33.5615H31.9354L31.9122 33.6269L32.0049 33.6598ZM30.0866 37.0949V36.9965H29.9883V37.0949H30.0866ZM33.9826 37.0949H34.081V36.9965H33.9826V37.0949ZM33.9826 37.9127V38.0111H34.081V37.9127H33.9826ZM30.0866 37.9127H29.9883V38.0111H30.0866V37.9127ZM29.7297 39.9706H28.7632V40.1673H29.7297V39.9706ZM28.8555 40.1028L31.6511 32.4892L31.4665 32.4214L28.6709 40.035L28.8555 40.1028ZM31.5588 32.5537H32.5105V32.357H31.5588V32.5537ZM32.4182 32.4892L35.2138 40.1028L35.3984 40.035L32.6028 32.4214L32.4182 32.4892ZM35.3061 39.9706H34.3395V40.1673H35.3061V39.9706ZM34.4322 40.036L32.157 33.6269L31.9717 33.6927L34.2468 40.1018L34.4322 40.036ZM32.0644 33.5615H32.0049V33.7582H32.0644V33.5615ZM31.9122 33.6269L29.6371 40.036L29.8224 40.1018L32.0976 33.6927L31.9122 33.6269ZM30.0866 37.1932H33.9826V36.9965H30.0866V37.1932ZM33.8843 37.0949V37.9127H34.081V37.0949H33.8843ZM33.9826 37.8144H30.0866V38.0111H33.9826V37.8144ZM30.185 37.9127V37.0949H29.9883V37.9127H30.185ZM42.5293 32.4553H42.6276V32.357H42.5293V32.4553ZM42.5293 40.0689V40.1673H42.6276V40.0689H42.5293ZM41.6371 40.0689L41.5563 40.125L41.5856 40.1673H41.6371V40.0689ZM37.4883 34.0911L37.5691 34.035L37.5397 33.9927H37.4883V34.0911ZM37.4139 34.0911V33.9927H37.3156V34.0911H37.4139ZM37.4139 40.0689V40.1673H37.5123V40.0689H37.4139ZM36.492 40.0689H36.3936V40.1673H36.492V40.0689ZM36.492 32.4553V32.357H36.3936V32.4553H36.492ZM37.3842 32.4553L37.465 32.3992L37.4356 32.357H37.3842V32.4553ZM41.5479 38.4481L41.4671 38.5042L41.4964 38.5464H41.5479V38.4481ZM41.6222 38.4481V38.5464H41.7206V38.4481H41.6222ZM41.6222 32.4553V32.357H41.5239V32.4553H41.6222ZM42.4309 32.4553V40.0689H42.6276V32.4553H42.4309ZM42.5293 39.9706H41.6371V40.1673H42.5293V39.9706ZM41.7179 40.0128L37.5691 34.035L37.4075 34.1471L41.5563 40.125L41.7179 40.0128ZM37.4883 33.9927H37.4139V34.1894H37.4883V33.9927ZM37.3156 34.0911V40.0689H37.5123V34.0911H37.3156ZM37.4139 39.9706H36.492V40.1673H37.4139V39.9706ZM36.5903 40.0689V32.4553H36.3936V40.0689H36.5903ZM36.492 32.5537H37.3842V32.357H36.492V32.5537ZM37.3034 32.5115L41.4671 38.5042L41.6286 38.3919L37.465 32.3992L37.3034 32.5115ZM41.5479 38.5464H41.6222V38.3497H41.5479V38.5464ZM41.7206 38.4481V32.4553H41.5239V38.4481H41.7206ZM41.6222 32.5537H42.5293V32.357H41.6222V32.5537ZM45.2961 32.4553H45.3944V32.357H45.2961V32.4553ZM45.2961 40.0689V40.1673H45.3944V40.0689H45.2961ZM44.3741 40.0689H44.2758V40.1673H44.3741V40.0689ZM44.3741 32.4553V32.357H44.2758V32.4553H44.3741ZM45.1977 32.4553V40.0689H45.3944V32.4553H45.1977ZM45.2961 39.9706H44.3741V40.1673H45.2961V39.9706ZM44.4725 40.0689V32.4553H44.2758V40.0689H44.4725ZM44.3741 32.5537H45.2961V32.357H44.3741V32.5537ZM50.6756 40.0689V40.1673H50.7479L50.7695 40.0983L50.6756 40.0689ZM48.2974 40.0689L48.2042 40.0375L48.1604 40.1673H48.2974V40.0689ZM51.3864 30.9137V30.8153H51.3158L51.2932 30.8822L51.3864 30.9137ZM54.3323 30.9137L54.4255 30.8822L54.403 30.8153H54.3323V30.9137ZM57.4213 40.0689V40.1673H57.5583L57.5145 40.0375L57.4213 40.0689ZM55.0431 40.0689L54.9493 40.0984L54.9709 40.1673H55.0431V40.0689ZM52.8929 33.2204L52.9867 33.1909L52.9651 33.122H52.8929V33.2204ZM52.8214 33.2204V33.122H52.7491L52.7275 33.191L52.8214 33.2204ZM50.3582 36.4658V36.3675H50.2599V36.4658H50.3582ZM55.3292 36.4658H55.4276V36.3675H55.3292V36.4658ZM55.3292 38.1467V38.245H55.4276V38.1467H55.3292ZM50.3582 38.1467H50.2599V38.245H50.3582V38.1467ZM50.6756 39.9706H48.2974V40.1673H50.6756V39.9706ZM48.3906 40.1003L51.4796 30.9451L51.2932 30.8822L48.2042 40.0375L48.3906 40.1003ZM51.3864 31.012H54.3323V30.8153H51.3864V31.012ZM54.2392 30.9451L57.3282 40.1003L57.5145 40.0375L54.4255 30.8822L54.2392 30.9451ZM57.4213 39.9706H55.0431V40.1673H57.4213V39.9706ZM55.137 40.0394L52.9867 33.1909L52.7991 33.2498L54.9493 40.0984L55.137 40.0394ZM52.8929 33.122H52.8214V33.3187H52.8929V33.122ZM52.7275 33.191L50.5818 40.0395L50.7695 40.0983L52.9152 33.2498L52.7275 33.191ZM50.3582 36.5642H55.3292V36.3675H50.3582V36.5642ZM55.2309 36.4658V38.1467H55.4276V36.4658H55.2309ZM55.3292 38.0483H50.3582V38.245H55.3292V38.0483ZM50.4566 38.1467V36.4658H50.2599V38.1467H50.4566Z" fill="#AEDDFF"/>
</g>
<g filter="url(#filter3_d_109_5)">
<path d="M44.9902 27.4113L45.4395 28.7249L46.8935 28.7249L45.7172 29.5368L46.1665 30.8505L44.9902 30.0386L43.8139 30.8505L44.2632 29.5368L43.087 28.7249L44.5409 28.7249L44.9902 27.4113Z" fill="#DCB365"/>
</g>
<g filter="url(#filter4_d_109_5)">
<path d="M61 27.4113L61.4493 28.7249L62.9033 28.7249L61.727 29.5368L62.1763 30.8505L61 30.0386L59.8237 30.8505L60.273 29.5368L59.0967 28.7249L60.5507 28.7249L61 27.4113Z" fill="#DCB365"/>
</g>
<g filter="url(#filter5_d_109_5)">
<path d="M56.9978 27.4113L57.4471 28.7249L58.9011 28.7249L57.7248 29.5368L58.1741 30.8505L56.9978 30.0386L55.8215 30.8505L56.2708 29.5368L55.0945 28.7249L56.5485 28.7249L56.9978 27.4113Z" fill="#DCB365"/>
</g>
<g filter="url(#filter6_d_109_5)">
<path d="M52.9951 27.4113L53.4444 28.7249L54.8984 28.7249L53.7221 29.5368L54.1714 30.8505L52.9951 30.0386L51.8188 30.8505L52.2681 29.5368L51.0918 28.7249L52.5458 28.7249L52.9951 27.4113Z" fill="#DCB365"/>
</g>
<g filter="url(#filter7_d_109_5)">
<path d="M48.9929 27.4113L49.4422 28.7249L50.8962 28.7249L49.7199 29.5368L50.1692 30.8505L48.9929 30.0386L47.8166 30.8505L48.2659 29.5368L47.0896 28.7249L48.5436 28.7249L48.9929 27.4113Z" fill="#DCB365"/>
</g>
<defs>
<filter id="filter0_i_109_5" x="3.21045" y="7.38824" width="41.9672" height="28.9614" filterUnits="userSpaceOnUse" color-interpolation-filters="sRGB">
<feFlood flood-opacity="0" result="BackgroundImageFix"/>
<feBlend mode="normal" in="SourceGraphic" in2="BackgroundImageFix" result="shape"/>
<feColorMatrix in="SourceAlpha" type="matrix" values="0 0 0 0 0 0 0 0 0 0 0 0 0 0 0 0 0 0 127 0" result="hardAlpha"/>
<feOffset dx="0.786779" dy="0.786779"/>
<feGaussianBlur stdDeviation="0.393389"/>
<feComposite in2="hardAlpha" operator="arithmetic" k2="-1" k3="1"/>
<feColorMatrix type="matrix" values="0 0 0 0 0 0 0 0 0 0 0 0 0 0 0 0 0 0 0.25 0"/>
<feBlend mode="normal" in2="shape" result="effect1_innerShadow_109_5"/>
</filter>
<filter id="filter1_i_109_5" x="30.9275" y="13.0689" width="44.4796" height="29.3321" filterUnits="userSpaceOnUse" color-interpolation-filters="sRGB">
<feFlood flood-opacity="0" result="BackgroundImageFix"/>
<feBlend mode="normal" in="SourceGraphic" in2="BackgroundImageFix" result="shape"/>
<feColorMatrix in="SourceAlpha" type="matrix" values="0 0 0 0 0 0 0 0 0 0 0 0 0 0 0 0 0 0 127 0" result="hardAlpha"/>
<feOffset dx="0.786779" dy="0.786779"/>
<feGaussianBlur stdDeviation="0.393389"/>
<feComposite in2="hardAlpha" operator="arithmetic" k2="-1" k3="1"/>
<feColorMatrix type="matrix" values="0 0 0 0 0 0 0 0 0 0 0 0 0 0 0 0 0 0 0.25 0"/>
<feBlend mode="normal" in2="shape" result="effect1_innerShadow_109_5"/>
</filter>
<filter id="filter2_d_109_5" x="19.7766" y="15.7885" width="38.8249" height="25.4606" filterUnits="userSpaceOnUse" color-interpolation-filters="sRGB">
<feFlood flood-opacity="0" result="BackgroundImageFix"/>
<feColorMatrix in="SourceAlpha" type="matrix" values="0 0 0 0 0 0 0 0 0 0 0 0 0 0 0 0 0 0 127 0" result="hardAlpha"/>
<feOffset dx="0.786779" dy="0.786779"/>
<feGaussianBlur stdDeviation="0.196695"/>
<feComposite in2="hardAlpha" operator="out"/>
<feColorMatrix type="matrix" values="0 0 0 0 0 0 0 0 0 0 0 0 0 0 0 0 0 0 0.25 0"/>
<feBlend mode="normal" in2="BackgroundImageFix" result="effect1_dropShadow_109_5"/>
<feBlend mode="normal" in="SourceGraphic" in2="effect1_dropShadow_109_5" result="shape"/>
</filter>
<filter id="filter3_d_109_5" x="43.0869" y="27.4113" width="5.00737" height="4.63994" filterUnits="userSpaceOnUse" color-interpolation-filters="sRGB">
<feFlood flood-opacity="0" result="BackgroundImageFix"/>
<feColorMatrix in="SourceAlpha" type="matrix" values="0 0 0 0 0 0 0 0 0 0 0 0 0 0 0 0 0 0 127 0" result="hardAlpha"/>
<feOffset dx="0.800485" dy="0.800485"/>
<feGaussianBlur stdDeviation="0.200121"/>
<feComposite in2="hardAlpha" operator="out"/>
<feColorMatrix type="matrix" values="0 0 0 0 0 0 0 0 0 0 0 0 0 0 0 0 0 0 0.25 0"/>
<feBlend mode="normal" in2="BackgroundImageFix" result="effect1_dropShadow_109_5"/>
<feBlend mode="normal" in="SourceGraphic" in2="effect1_dropShadow_109_5" result="shape"/>
</filter>
<filter id="filter4_d_109_5" x="59.0967" y="27.4113" width="5.00737" height="4.63994" filterUnits="userSpaceOnUse" color-interpolation-filters="sRGB">
<feFlood flood-opacity="0" result="BackgroundImageFix"/>
<feColorMatrix in="SourceAlpha" type="matrix" values="0 0 0 0 0 0 0 0 0 0 0 0 0 0 0 0 0 0 127 0" result="hardAlpha"/>
<feOffset dx="0.800485" dy="0.800485"/>
<feGaussianBlur stdDeviation="0.200121"/>
<feComposite in2="hardAlpha" operator="out"/>
<feColorMatrix type="matrix" values="0 0 0 0 0 0 0 0 0 0 0 0 0 0 0 0 0 0 0.25 0"/>
<feBlend mode="normal" in2="BackgroundImageFix" result="effect1_dropShadow_109_5"/>
<feBlend mode="normal" in="SourceGraphic" in2="effect1_dropShadow_109_5" result="shape"/>
</filter>
<filter id="filter5_d_109_5" x="55.0945" y="27.4113" width="5.00737" height="4.63994" filterUnits="userSpaceOnUse" color-interpolation-filters="sRGB">
<feFlood flood-opacity="0" result="BackgroundImageFix"/>
<feColorMatrix in="SourceAlpha" type="matrix" values="0 0 0 0 0 0 0 0 0 0 0 0 0 0 0 0 0 0 127 0" result="hardAlpha"/>
<feOffset dx="0.800485" dy="0.800485"/>
<feGaussianBlur stdDeviation="0.200121"/>
<feComposite in2="hardAlpha" operator="out"/>
<feColorMatrix type="matrix" values="0 0 0 0 0 0 0 0 0 0 0 0 0 0 0 0 0 0 0.25 0"/>
<feBlend mode="normal" in2="BackgroundImageFix" result="effect1_dropShadow_109_5"/>
<feBlend mode="normal" in="SourceGraphic" in2="effect1_dropShadow_109_5" result="shape"/>
</filter>
<filter id="filter6_d_109_5" x="51.0918" y="27.4113" width="5.00737" height="4.63994" filterUnits="userSpaceOnUse" color-interpolation-filters="sRGB">
<feFlood flood-opacity="0" result="BackgroundImageFix"/>
<feColorMatrix in="SourceAlpha" type="matrix" values="0 0 0 0 0 0 0 0 0 0 0 0 0 0 0 0 0 0 127 0" result="hardAlpha"/>
<feOffset dx="0.800485" dy="0.800485"/>
<feGaussianBlur stdDeviation="0.200121"/>
<feComposite in2="hardAlpha" operator="out"/>
<feColorMatrix type="matrix" values="0 0 0 0 0 0 0 0 0 0 0 0 0 0 0 0 0 0 0.25 0"/>
<feBlend mode="normal" in2="BackgroundImageFix" result="effect1_dropShadow_109_5"/>
<feBlend mode="normal" in="SourceGraphic" in2="effect1_dropShadow_109_5" result="shape"/>
</filter>
<filter id="filter7_d_109_5" x="47.0896" y="27.4113" width="5.00737" height="4.63994" filterUnits="userSpaceOnUse" color-interpolation-filters="sRGB">
<feFlood flood-opacity="0" result="BackgroundImageFix"/>
<feColorMatrix in="SourceAlpha" type="matrix" values="0 0 0 0 0 0 0 0 0 0 0 0 0 0 0 0 0 0 127 0" result="hardAlpha"/>
<feOffset dx="0.800485" dy="0.800485"/>
<feGaussianBlur stdDeviation="0.200121"/>
<feComposite in2="hardAlpha" operator="out"/>
<feColorMatrix type="matrix" values="0 0 0 0 0 0 0 0 0 0 0 0 0 0 0 0 0 0 0.25 0"/>
<feBlend mode="normal" in2="BackgroundImageFix" result="effect1_dropShadow_109_5"/>
<feBlend mode="normal" in="SourceGraphic" in2="effect1_dropShadow_109_5" result="shape"/>
</filter>
</defs>
</svg>
